<svg width="25" height="25" viewBox="0 0 25 25" fill="none" xmlns="http://www.w3.org/2000/svg">
<path d="M13.4061 22.9167C12.9031 22.9161 12.4204 22.7178 12.0623 22.3646L5.38524 15.6771C5.2139 15.5067 5.10711 15.2821 5.08315 15.0417L4.16649 5.30209C4.15246 5.14952 4.17225 4.99573 4.22447 4.85169C4.27668 4.70764 4.36003 4.57689 4.46857 4.46875C4.57671 4.36021 4.70746 4.27687 4.8515 4.22465C4.99555 4.17244 5.14933 4.15264 5.3019 4.16667L15.0415 5.08334C15.2819 5.10729 15.5065 5.21408 15.6769 5.38542L22.3644 12.0625C22.7187 12.4179 22.9177 12.8992 22.9177 13.401C22.9177 13.9029 22.7187 14.3842 22.3644 14.7396L14.7394 22.3646C14.3851 22.7172 13.9059 22.9156 13.4061 22.9167ZM7.15607 14.4688L13.4061 20.7188L20.7498 13.375L14.4998 7.125L6.3644 6.36459L7.15607 14.4688Z" fill="#FFC700"/>
<path d="M10.9375 12.5C11.8004 12.5 12.5 11.8004 12.5 10.9375C12.5 10.0746 11.8004 9.375 10.9375 9.375C10.0746 9.375 9.375 10.0746 9.375 10.9375C9.375 11.8004 10.0746 12.5 10.9375 12.5Z" fill="#FFC700"/>
</svg>
